# xmcd
#
# Track frame offsets:
#	150
#	11235
#	34352
#	45887
#	63145
#	88632
#	109497
#	115740
#	129842
#	140780
#	156080
#	159792
#	175452
#	183959
#	196005
#	212946
#	229770
#	252028
#	266147
#	286291
#	294520
#
# Disc length: 4173 seconds
#
# Revision: 1
# Processed by: cddbd v1.5.2PL0 Copyright (c) Steve Scherf et al.
# Submitted via: audiograbber 1.83.01
#
DISCID=29104b15
DTITLE=Lutz Gerlach and Ulrike Mai - Des Jahres letzte Stunden
DYEAR=2005
DGENRE=Weihnachtsmusik
TTITLE0=small Hymn
TTITLE1=Blues vom Tannenbaum
TTITLE2=Stub´m musi
TTITLE3=Schneeflöckchen
TTITLE4=Kommet ihr Hirten
TTITLE5=falling down
TTITLE6=Fröhliche Weihnacht
TTITLE7=lullaby
TTITLE8=wortlos
TTITLE9=still waters (run deep)
TTITLE10=p.s.
TTITLE11=Alle Jahre wieder
TTITLE12=Gavotte
TTITLE13=Dreamland
TTITLE14=Morgen, Kinder wird´s was geben
TTITLE15=fast 4ward
TTITLE16=Tausend Wege
TTITLE17=D(arss)-Dur
TTITLE18=O du fröhliche , stille Nacht, wenn der Schnee leise rieselt, kommt de
TTITLE18=r Weihnachtsmann
TTITLE19=Des jahres letzte Stunde
TTITLE20=Abschied
EXTD=
EXTT0=
EXTT1=
EXTT2=
EXTT3=
EXTT4=
EXTT5=
EXTT6=
EXTT7=
EXTT8=
EXTT9=
EXTT10=
EXTT11=
EXTT12=
EXTT13=
EXTT14=
EXTT15=
EXTT16=
EXTT17=
EXTT18=
EXTT19=
EXTT20=
PLAYORDER=
